/* XPM */
static char *_db5ecc7db0b436381a2ca7ec323f19b2mRvQopKeX8HyX5A[] = {
/* columns rows colors chars-per-pixel */
"64 64 57 1 ",
"  c gray22",
". c gray33",
"X c #484848",
"o c #EC0000",
"O c #D40000",
"+ c #A40000",
"@ c #E00000",
"# c #C80000",
"$ c #BC0000",
"% c #B00000",
"& c #880000",
"* c #640000",
"= c #2C2C2C",
"- c #7C0000",
"; c #980000",
": c #700000",
"> c #580000",
", c #400000",
"< c #4C0000",
"1 c #202020",
"2 c gray36",
"3 c #646464",
"4 c gray25",
"5 c #6D0F0F",
"6 c white",
"7 c #343434",
"8 c #444444",
"9 c #C00F0F",
"0 c #DA9797",
"q c #B19797",
"w c #8F0F0F",
"e c #780F0F",
"r c #570F0F",
"t c gray51",
"y c #4B4B4B",
"u c gray58",
"i c #989898",
"p c #8E0D0D",
"a c #E4B2B2",
"s c #A64040",
"d c #8B4040",
"f c #BB4040",
"g c #944040",
"h c #9D4040",
"j c #704040",
"k c #4E4E4E",
"l c #C59797",
"z c #BB9797",
"x c #CE9797",
"c c #A4A4A4",
"v c gray37",
"b c #AEAEAE",
"n c #4C4C4C",
"m c #E39797",
"M c #C15252",
"N c #A65252",
"B c gray19",
/* pixels */
"                                                                ",
". .XXXXX.XXXXXX.X XXXXXXX......XXXXXXXXX.......XXXX   XX..XXXXX ",
" ooOOOOOOOOO+XX.ooOOOOOOOOOOOOOOOOOO+X .oooo@@@@@@OOOOO####$$$+X",
"Xo#%%O&+O&#+*=X.o$&$&$&$-$;$;$-$-$#+:=X O+#%#%%#:#-#%#&%+-#;#+-=",
"XO+-+&+;:+&:*=X.O$&&+&:++:;++:;+:+;:>=X.O++-*+&:&+-&++&+-&+>+:*=",
"XO-++:;++:+>,=X.O&$+&+:+&+:+:&-+:;-:>=XXO:+*&+*+:+-+&+*+;-+-+:<=",
"X#+-&;-+:&+:,=X.$$&+&&;+:&:+&:;-&:+:,= X$:+-+&*+::++:+&++-+>+&<=",
"X$-++:+;:;:>,=XX$#&+:+:+:+:;&:-+:;-:>= X$;+*&+-&:&-+&+*+-&+-+:,=",
"X$+:&>:->:&:,= .;;::<&::&:<:&:&:<&::,= X$::>::<&<:>&<:<&*<:&:&,=",
"X-***,,,,,,,,= X-**>>>>>>>>>,,,,,,,,,= X&**********>>>>>>>>>,,,=",
"XX========111= .X=====11111==1111=====X. ===========11111=======",
".    XXXX     X XXXXXXX   .XXX  XXXXXX. X....2332..XX4 4. .XXX. ",
"oOOO$$$$$$$$$$$+X.XooOOOOOO#######$$$$$$$$$$$$$$$$$$+X4.ooOOOOOO",
"%&&%;-%-;&%*%&+, X.o:%#-$*&$&&#;+&-&+&+&+-#*#&;$#;#+, X o#-%&%&%",
"&+&+-&&*+&*&++:,=XXO%:+-++&+*+:*&+-+-+*++&*+&+:&+:+:, X.#%-+&-+;",
":++&;*+-&&;*+&:,= XO:+&;&&*&&:+&*+&-*-&&+>&-+:+:++::,=4X#-+++-+-",
"+&&+&--&-+;*+*:,= XO:++-+*&+*:+*&+-&-+*+&>+*+:&:+:+:,= X#%-+-+;-",
":+*+:&-;*+*&++:,=X.O%>+-+&*&>&:*+&->-+*&>&+*&+:&+:+:,1 X%-++>+-&",
":%*:<-:;:;:>;::,=X.%+:&>:;:&*:&>:;:;*&:&&>;::&<:;:&:,14.%+-:>:;:",
",<<<<<<<<<<<<,,, X.+***566666666666666666>>>>>>>>>>,,1X +*,*,,*,",
"===1===111===11= X X 7= 66666666666666666===1111===== X.X=======",
"..X  X. . XX    XX.XXX48666666666666666664XX.4  4XXX.X. .4 4.XXX",
".ooOOOOOOO$$$$$$$$$$$$$96660X..ooOOOOOOOOOO$$$$$$$$$$$$$$$$$$$+X",
".o&%$-$-$-%&%&%#&%&%&$%5666q X.o$:O+%&+%&%;%-*+&:&+-&+;&+-&+>+,=",
" o%&+;+-:&++&;&+&*+:+&*w666q=X2O$;+*+*&:;&*+*&+*+:+-+&+*+;-+-:,=",
"X$*++:&>+*+:+&;+*&+:&+&5666q=.3O$-+-+*+:;+-+-+&*+::+;:;&++-+>:,=",
"X$%&+<+>:&+&:-+-&*-+*+&5666q=.2O:+:;&*&;:+*&*&+-&:&-+&+*+-&+-:,=",
".$:*+<&-+*+>+*+&*&+&*+*w666q=X.O#:+:+&+&:+*+>::<+<+>+<++&*<:&:,=",
"X#+*:::>:<::&*&::&::*:;e666q= .#+:;:&>::::*&:&<+>:+<:&<+>+<+::,=",
"X+;**************<<<<<<r666q= .+**************>>>>>>>>>>>>,>->,=",
"XX =================    6666666666666666t1111=   =111===========",
".....XX X   X.33...XXX4y6666666666666666u 4 4X..XX4 4XXX. .XXX. ",
"$$$$$$$$$$+X .OOOOOOOO$96666666666666666i..#oOOOOOOOOO$$$$$$$$$$",
"+%+%;#%%#+, X O+*+:++*+p666asdffdffgfhfjkX.O+-+:++*+-&-+:+&+-+:+",
"+-&+;+-+&:,=X.O*+-&+-+;e666l&&+&*+:&+*+, ..O+>+:+&*+&+-&&;:;-;&:",
"&-+;-+-;+:,=X O*++-;+:+e666z+<&&+&:;+-+, .3O+-+:+&+&++-+:;&+;-+:",
"+&-+;+;-&:, X.O;*+-+->;w666x+*+&*&;:&+-, .3O-++:+*++--+-+&;;&-:&",
"+&-+-+-;+:, XXO*+->;+:&w666l&<*;*+;:+-+, X.#+-++:+&&-+-+:;&+-&+:",
"::&;::;:::, XX;*++>+-:+e666z&*+&*;:;+*-,=X.#+>+:++&+&+-+:;:;-++:",
",,<<<<<<<,,=XX+********5666z>>>>>>>>>>,,=XX+***************>>>>,",
"============X.X=1111== 8666c111========= XXX====  X ==111=======",
".X. X  XX    XX   XXXXXv666b  .XXX. X X XX.X. .X.23.nXX .X.X. . ",
" oOOOOOOO$$$$$$$$$$$$$$9666m$$$+ . ooOOOOOOOO$$$$$$$$$$$$$$$$$+X",
".O+&&+*++-;+-+:&+*+-+&+566666666666666666M>+:+>+&>;&:+&-+-;:&+,=",
"XO+*+&*+&;-+*&>+;*+>&;&566666666666666666N>&>;-+>+*+:&:+&-;+*&,=",
"XO&*+*&:*+*+&-&+*;&&>-+r66666666666666666M->+->;+>+::+:+-+:&*+,=",
" O+&+&*+&-;+-+>&+*+>&+>;+-+++:-,= XO+*+&*+>+:;-->&*+-&;&;-:+&+,=",
".O+*&+*+*+*+*+:+**+>&-+-&*;*&:+,1 .O+**+*->+>+>;>+*&:+:-+-;&*:,=",
" #+*+*&:&;-+&&&+;*&->*+<+:;-+:+,1 .#:+*&*+>-+->;:&*+:+:+-;:+*+,=",
".+*********<<<<<<<<<<<<<<<<<<<<,=X.+*********>>>>><<<<<<<<<<<,,=",
" X==========   =1111===1111==11==X X======111=7 7=1====111======",
". . .X.XXXX.33.X. .X.X4   4X.XX XX. .XXXXXXXXn...nXXXX B11B XX.X",
"OOOOO$$$$$$$$$$$$+X.XooOOOOOOOO$$$$$$$$$$$$$$$+X .oOOOOO$$$$$$$$",
"-+>++*;*+-#-+*+-+,=XXO++++*+<+-+*+*+;+*+*+>+:*, X.O+*&+>+:+:+*+:",
"+--+-+*;-*+>-*&*&,=XXO-+:+*:<-;-+&*&;*-&:&>+*+,7X.O*+>+:+:&+:+&<",
"+->-+*;*-+->+&*;-,=X4O--:+*--+>+<++*+*+*&>&&*:,=X.O*+::++&:&:*:&",
"-;>;**+*+-+>-:*+*,=X4O+<:+*+<+-;*+*&-*+*+&>:;*,=X.O+*>+&::+:+*:+",
"*+-+*+*&+*+->&+-&,=X4O<++*+-:&>-<+*+*--*&:>&:*,=XXO*+&+:+&::>+:+",
"*+--*;;*;*->+*+*;,=XXO<+:+*--&<;*&<+-*+&*+>+>&,= XO*+>:>+:+:>*+<",
"-;>+**&*--+>+*:&-,=X.#+<:+*+<&*+*+:*+*-+*&:&*&,= X#**>+>+:+:+*+:",
"<<<<<<<<<<<<<<<<,,=XX+,,,,,<<<<<<<<<<<<<<<<<<,,1X.+,,<<<<<<<<<<<",
"===================X.X 77==============11111=111 XX======11111==",
" . .   XXXXX.. XXXX.....XXX.XXX.XX XXX4  4  4X4 4.XX .XXXX4 4XXX",
"................................................................"
};
