/* XPM */
static char *d11ed0fc155448eb8feba6c7c205be43Kcfv8JcymRxNH8Yh[] = {
/* columns rows colors chars-per-pixel */
"64 64 127 2 ",
"   c gray22",
".  c gray33",
"X  c #484848",
"o  c #EC0000",
"O  c #D40000",
"+  c #A40000",
"@  c #E00000",
"#  c #C80000",
"$  c #BC0000",
"%  c #B00000",
"&  c #880000",
"*  c #640000",
"=  c #2C2C2C",
"-  c #7C0000",
";  c #980000",
":  c #700000",
">  c #580000",
",  c #400000",
"<  c #4C0000",
"1  c #202020",
"2  c gray36",
"3  c #646464",
"4  c gray25",
"5  c #843535",
"6  c white",
"7  c #F3ECEC",
"8  c #6B0B0B",
"9  c #905555",
"0  c #7B3535",
"q  c gray37",
"w  c #979797",
"e  c #343434",
"r  c #6A6A6A",
"t  c #585858",
"y  c gray43",
"u  c gray96",
"i  c gray30",
"p  c gray48",
"a  c #CA3535",
"s  c gray69",
"d  c #E25555",
"f  c #DD3535",
"g  c #CA3434",
"h  c #FAEDED",
"j  c #FBFBFB",
"k  c #C25454",
"l  c #AD3434",
"z  c #A03434",
"x  c #B17575",
"c  c #FDFBFB",
"v  c #BBBBBB",
"b  c #B05555",
"n  c #B73434",
"m  c #C69A9A",
"M  c #FEFEFE",
"N  c #7C7C7C",
"B  c #C25555",
"V  c #973535",
"C  c #9F5454",
"Z  c #671717",
"A  c #F8F6F6",
"S  c gray80",
"D  c #B73535",
"F  c #A85555",
"G  c #A88A8A",
"H  c #DD3434",
"J  c #8E3535",
"K  c #A05555",
"L  c #4B0F0F",
"P  c #F3F3F3",
"I  c #F1C2C2",
"U  c #713535",
"Y  c #885555",
"T  c gray57",
"R  c #904949",
"E  c #985555",
"W  c gray38",
"Q  c #727272",
"!  c gray20",
"~  c #EEEEEE",
"^  c gray85",
"/  c #4E4E4E",
"(  c #909090",
")  c #888888",
"_  c #8D8D8D",
"`  c #686868",
"'  c #D25555",
"]  c #BD0303",
"[  c #F6DEDE",
"{  c gray47",
"}  c #C45B5B",
"|  c #C96969",
" . c #E9D1D1",
".. c #F1E7E7",
"X. c #8C0808",
"o. c #AB4B4B",
"O. c #C87979",
"+. c #848484",
"@. c #DAC2C2",
"#. c #F7F0F0",
"$. c #8F0F0F",
"%. c #843434",
"&. c #D58989",
"*. c #E0B2B2",
"=. c #FBF6F6",
"-. c #721717",
";. c #722727",
":. c #FEFDFD",
">. c #BB9797",
",. c #805555",
"<. c #B2B2B2",
"1. c gray99",
"2. c gray55",
"3. c #6D6D6D",
"4. c DimGray",
"5. c #F1F1F1",
"6. c #777777",
"7. c #4C4C4C",
"8. c #F79393",
"9. c #A13535",
"0. c #ED1212",
"q. c #FAF3F3",
"w. c #AD3535",
"e. c #C58282",
"r. c #8D0B0B",
"t. c #F8ECEC",
"y. c gray19",
/* pixels */
"                                                                                                                                ",
".   . X X X X X . X X X X X X . X   X X X X X X X . . . . . . X X X X X X X X X . . . . . . . X X X X       X X . . X X X X X   ",
"  o o O O O O O O O O O + X X . o o O O O O O O O O O O O O O O O O O O + X   . o o o o @ @ @ @ @ @ O O O O O # # # # $ $ $ + X ",
"X o # % % O & + O & # + * = X . o $ & $ & $ & $ - $ ; $ ; $ - $ - $ # + : = X   O + # % # % % # : # - # % # & % + - # ; # + - = ",
"X O + - + & + ; : + & : * = X . O $ & & + & : + + : ; + + : ; + : + ; : > = X . O + + - * + & : & + - & + + & + - & + > + : * = ",
"X O - + + : ; + + : + > , = X . O & $ + & + : + & + : + : & - + : ; - : > = X X O : + * & + * + : + - + & + * + ; - + - + : < = ",
"X # + - & ; - + : & + : , = X . $ $ & + & & ; + : & : + & : ; - & : + : , =   X $ : + - + & * + : : + + : + & + + - + > + & < = ",
"X $ - + + : + ; : ; : > , = X X $ # & + : + : + : + : ; & : - + : ; - : > =   X $ ; + * & + - & : & - + & + * + - & + - + : , = ",
"X $ + : & > : - > : & : , =   . ; ; : : < & : : & : < : & : & : < & : : , =   X $ : : > : : < & < : > & < : < & * < : & : & , = ",
"X - * * * , , , , , , , , =   X - * * > > > > > > > > > , , , , , , , , , =   X & * * * * * * * * * * > > > > > > > > > , , , = ",
"X X = = = = = = = = 1 1 1 =   . X = = = = = 1 1 1 1 1 = = 1 1 1 1 = = = = = X .   = = = = = = = = = = = 1 1 1 1 1 = = = = = = = ",
".         X X X X           X   X X X X X X X       . X X X     X X X X X X .   X . . . . 2 3 3 2 . . X X 4   4 .   . X X X .   ",
"o O O O $ $ $ $ $ $ $ $ $ $ $ + X . X o o O O O O O O # # # # # # # $ $ $ $ $ $ $ $ $ $ $ $ $ $ $ $ $ $ + X 4 . o o O O O O O O ",
"% & & % ; - % - ; & % * % & + ,   X . o : % # - $ * & $ & & # ; + & - & + & + & + - # * # & ; $ # ; # + ,   X   o # - % & % & % ",
"& + & + - & & * + & * & + + : , = X X O % : + - + + & + * + : * & + - + - + * + + & * + & + : & + : + : ,   X . # % - + & - + ; ",
": + + & ; * + - & & ; * + & : , =   X O : + & ; & & * & & : + & * + & - * - & & + > & - + : + : + + : : , = 4 X # - + + + - + - ",
"+ & & + & - - & - + ; * + * : , =   X O : + + - + * & + * : + * & + - & - + * + & > + * + : & : + : + : , =   X # % - + - + ; - ",
": + * + : & - ; * + * & + + : , = X . O % > + - + & * & > & : * + & - > - + * & > & + * & + : & + : + : , 1   X % - + + > + - & ",
": % * : < - : ; : ; : > ; : : , = X . % + : & > : ; : & * : & > : ; : ; * & : & & > ; : : & < : ; : & : , 1 4 . % + - : > : ; : ",
", < < < < < < < < < < < < , , ,   X . + * 5 6 6 6 6 7 8 * * * * * > > > > > 9 6 6 6 0 > > > > > > > > , , 1 X   + * , * , , * , ",
"= = = 1 = = = 1 1 1 = = = 1 1 =   X   X   q 6 6 6 6 6 w e e     e = = = 1 1 r 6 6 6 t = 1 1 1 1 = = = = =   X . X = = = = = = = ",
". . X     X .   .   X X         X X . X X y 6 6 6 6 6 u i X X X .   . X 4   p 6 6 6 y X . 4     4 X X X . X .   . 4   4 . X X X ",
". o o O O O O O O O $ $ $ $ $ $ $ $ $ $ $ a 6 6 6 6 6 6 s . . o o O O O O O d 6 6 6 f $ $ $ $ $ $ $ $ $ $ $ $ $ $ $ $ $ $ $ + X ",
". o & % $ - $ - $ - % & % & % # & % & % & g 6 6 6 h 6 6 j q . o $ : O + % & k 6 6 6 l % - * + & : & + - & + ; & + - & + > + , = ",
"  o % & + ; + - : & + + & ; & + & * + : + z 6 6 6 x c 6 6 v 2 O $ ; + * + * b 6 6 6 5 + * & + * + : + - + & + * + ; - + - : , = ",
"X $ * + + : & > + * + : + & ; + * & + : & n 6 6 6 k m 6 6 M N O $ - + - + * B 6 6 6 V + - + & * + : : + ; : ; & + + - + > : , = ",
"X $ % & + < + > : & + & : - + - & * - + * n 6 6 6 C Z A 6 6 S O : + : ; & * b 6 6 6 5 & * & + - & : & - + & + * + - & + - : , = ",
". $ : * + < & - + * + > + * + & * & + & * D 6 6 6 F % G 6 6 6 H # : + : + & B 6 6 6 5 + > : : < + < + > + < + + & * < : & : , = ",
"X # + * : : : > : < : : & * & : : & : : * J 6 6 6 K : L P 6 6 I + : ; : & > K 6 6 6 5 & : & < + > : + < : & < + > + < + : : , = ",
"X + ; * * * * * * * * * * * * * * < < < < U 6 6 6 Y , , T 6 6 6 R * * * * * E 6 6 6 5 * * * > > > > > > > > > > > > , > - > , = ",
"X X   = = = = = = = = = = = = = = = = =   W 6 6 6 Q = = ! ~ 6 6 ^ = = = = = Q 6 6 6 / 1 1 =       = 1 1 1 = = = = = = = = = = = ",
". . . . . X X   X       X . 3 3 . . . X X y 6 6 6 p 4     ( 6 6 6 ) .   . X _ 6 6 6 `   4 X . . X X 4   4 X X X .   . X X X .   ",
"$ $ $ $ $ $ $ $ $ $ + X   . O O O O O O O f 6 6 6 ' $ $ $ ] [ 6 6 [ ] $ $ $ ' 6 6 6 { # o O O O O O O O O O $ $ $ $ $ $ $ $ $ $ ",
"+ % + % ; # % % # + ,   X   O + * + : + + 5 6 6 6 B : + & * } 6 6 6 | : + - B 6 6 6 { O + - + : + + * + - & - + : + & + - + : + ",
"+ - & + ; + - + & : , = X . O * + - & + - D 6 6 6 b & : & & +  .6 6 ..X.+ * B 6 6 6 { O + > + : + & * + & + - & & ; : ; - ; & : ",
"& - + ; - + - ; + : , = X   O * + + - ; + J 6 6 6 b + > + < & o.6 6 6 O.+ - B 6 6 6 +.O + - + : + & + & + + - + : ; & + ; - + : ",
"+ & - + ; + ; - & : ,   X . O ; * + - + - 0 6 6 6 b : & + * + & @.6 6 #.$.+ F 6 6 6 +.O - + + : + * + + - - + - + & ; ; & - : & ",
"+ & - + - + - ; + : ,   X X O * + - > ; + J 6 6 6 b + : & < * ; %.6 6 6 &.- B 6 6 6 { # + - + + : + & & - + - + : ; & + - & + : ",
": : & ; : : ; : : : ,   X X ; * + + > + - J 6 6 6 E + > & * + & * *.6 6 =.-.F 6 6 6 { # + > + : + + & + & + - + : ; : ; - + + : ",
", , < < < < < < < , , = X X + * * * * * * 5 6 6 6 9 > > > > > > > ;.:.6 6 >.,.6 6 6 y + * * * * * * * * * * * * * * * > > > > , ",
"= = = = = = = = = = = = X . X = 1 1 1 1 = t 6 6 6 Q 1 1 1 1 1 = = = <.6 6 1.2.6 6 6 3.X = = = =     X   = = 1 1 1 = = = = = = = ",
". X .   X     X X         X X       X X X 3.6 6 6 +.X       . X X X 4.j 6 6 5.6 6 6 6.X .   . X . 2 3 . 7.X X   . X . X .   .   ",
"  o O O O O O O O $ $ $ $ $ $ $ $ $ $ $ $ a 6 6 6 ' $ $ $ $ $ +   .   8.6 6 6 6 6 6 f O O $ $ $ $ $ $ $ $ $ $ $ $ $ $ $ $ $ + X ",
". O + & & + * + + - ; + - + : & + * + - + 9.6 6 6 E + + - : + ,   X . 0.q.6 6 6 6 6 0 + : + > + & > ; & : + & - + - ; : & + , = ",
"X O + * + & * + & ; - + * & > + ; * + > & w.6 6 6 F + - + : ; , = X X O e.6 6 6 6 6 0 & > ; - + > + * + : & : + & - ; + * & , = ",
"X O & * + * & : * + * + & - & + * ; & & > V 6 6 6 9 & * & & : , =   X O r.t.6 6 6 6 V > + - > ; + > + : : + : + - + : & * + , = ",
"  O + & + & * + & - ; + - + > & + * + > & + > ; + - + + + : - , =   X O + * + & * + > + : ; - - > & * + - & ; & ; - : + & + , = ",
". O + * & + * + * + * + * + : + * * + > & - + - & * ; * & : + , 1   . O + * * + * - > + > + > ; > + * & : + : - + - ; & * : , = ",
"  # + * + * & : & ; - + & & & + ; * & - > * + < + : ; - + : + , 1   . # : + * & * + > - + - > ; : & * + : + : + - ; : + * + , = ",
". + * * * * * * * * * < < < < < < < < < < < < < < < < < < < < , = X . + * * * * * * * * * > > > > > < < < < < < < < < < < , , = ",
"  X = = = = = = = = = =       = 1 1 1 1 = = = 1 1 1 1 = = 1 1 = = X   X = = = = = = 1 1 1 = e   e = 1 = = = = 1 1 1 = = = = = = ",
".   .   . X . X X X X . 3 3 . X .   . X . X 4       4 X . X X   X X .   . X X X X X X X X 7.. . . 7.X X X X   y.1 1 y.  X X . X ",
"O O O O O $ $ $ $ $ $ $ $ $ $ $ $ + X . X o o O O O O O O O O $ $ $ $ $ $ $ $ $ $ $ $ $ $ $ + X   . o O O O O O $ $ $ $ $ $ $ $ ",
"- + > + + * ; * + - # - + * + - + , = X X O + + + + * + < + - + * + * + ; + * + * + > + : * ,   X . O + * & + > + : + : + * + : ",
"+ - - + - + * ; - * + > - * & * & , = X X O - + : + * : < - ; - + & * & ; * - & : & > + * + , e X . O * + > + : + : & + : + & < ",
"+ - > - + * ; * - + - > + & * ; - , = X 4 O - - : + * - - + > + < + + * + * + * & > & & * : , = X . O * + : : + + & : & : * : & ",
"- ; > ; * * + * + - + > - : * + * , = X 4 O + < : + * + < + - ; * + * & - * + * + & > : ; * , = X . O + * > + & : : + : + * : + ",
"* + - + * + * & + * + - > & + - & , = X 4 O < + + * + - : & > - < + * + * - - * & : > & : * , = X X O * + & + : + & : : > + : + ",
"* + - - * ; ; * ; * - > + * + * ; , = X X O < + : + * - - & < ; * & < + - * + & * + > + > & , =   X O * + > : > + : + : > * + < ",
"- ; > + * * & * - - + > + * : & - , = X . # + < : + * + < & * + * + : * + * - + * & : & * & , =   X # * * > + > + : + : + * + : ",
"< < < < < < < < < < < < < < < < , , = X X + , , , , , < < < < < < < < < < < < < < < < < < , , 1 X . + , , < < < < < < < < < < < ",
"= = = = = = = = = = = = = = = = = = = X . X   e e = = = = = = = = = = = = = = 1 1 1 1 1 = 1 1 1   X X = = = = = = 1 1 1 1 1 = = ",
"  .   .       X X X X X . .   X X X X . . . . . X X X . X X X . X X   X X X 4     4     4 X 4   4 . X X   . X X X X 4   4 X X X ",
". . . . . . . . . . . . . . . . . . . . . . . . . . . . . . . . . . . . . . . . . . . . . . . . . . . . . . . . . . . . . . . . "
};
