/* XPM */
static char *_f1fdd00d35d42e3893e5aaa9be71fa8XjskaR6YAi0dlH08[] = {
/* columns rows colors chars-per-pixel */
"64 64 158 2 ",
"   c gray22",
".  c gray33",
"X  c #484848",
"o  c #EC0000",
"O  c #D40000",
"+  c #A40000",
"@  c #E00000",
"#  c #C80000",
"$  c #BC0000",
"%  c #B00000",
"&  c #880000",
"*  c #640000",
"=  c #2C2C2C",
"-  c #7C0000",
";  c #980000",
":  c #700000",
">  c #580000",
",  c #400000",
"<  c #4C0000",
"1  c #202020",
"2  c gray36",
"3  c #646464",
"4  c gray25",
"5  c #690909",
"6  c #882B2B",
"7  c #AB4B4B",
"8  c #9E6B6B",
"9  c #B17575",
"0  c #BA5454",
"q  c #8D3333",
"w  c #9F1212",
"e  c #7C2727",
"r  c #C8A4A4",
"t  c #FDFDFD",
"y  c white",
"u  c #EBE1E1",
"i  c #C2A2A2",
"p  c #986262",
"a  c #6F2323",
"s  c #343434",
"d  c gray18",
"f  c #B2B2B2",
"g  c #ACACAC",
"h  c gray94",
"j  c #C8C8C8",
"k  c #B7B7B7",
"l  c gray68",
"z  c #B6B6B6",
"x  c #D7D7D7",
"c  c #EFEFEF",
"v  c gray29",
"b  c #D35656",
"n  c #FBF6F6",
"m  c #A0A0A0",
"M  c #5B5B5B",
"N  c #D81616",
"B  c #E45D5D",
"V  c #F3B9B9",
"C  c #D60D0D",
"Z  c #E2D0D0",
"A  c #835959",
"S  c #C13838",
"D  c #8B0707",
"F  c #650202",
"G  c #FBF8F8",
"H  c #E8B6B6",
"J  c #9D2D2D",
"K  c #B37979",
"L  c #A64040",
"P  c #A27272",
"I  c #731818",
"U  c #E5ADAD",
"Y  c #F5EDED",
"T  c #7A4E4E",
"R  c #A78282",
"E  c gray77",
"W  c #888888",
"Q  c #767676",
"!  c #A60606",
"~  c #2F2F2F",
"^  c #FBFBFB",
"/  c #D0D0D0",
"(  c gray62",
")  c #686868",
"_  c #323232",
"`  c gray27",
"'  c gray70",
"]  c #F8F8F8",
"[  c #CECECE",
"{  c #818181",
"}  c #CD4040",
"|  c #E9ABAB",
" . c #FBF1F1",
".. c #E59C9C",
"X. c #A80C0C",
"o. c #890303",
"O. c #883C3C",
"+. c #D28282",
"@. c #E7BDBD",
"#. c #F7F3F3",
"$. c #DFD5D5",
"%. c gray24",
"&. c #660404",
"*. c #BC4444",
"=. c #C49595",
"-. c #F8F0F0",
";. c #A21818",
":. c #E2B0B0",
">. c #747474",
",. c #8A0404",
"<. c #EDCDCD",
"1. c #AB5C5C",
"2. c gray71",
"3. c #813030",
"4. c gray74",
"5. c #894B4B",
"6. c gray63",
"7. c #989898",
"8. c gray49",
"9. c #6A6A6A",
"0. c #777777",
"q. c #585858",
"w. c #4C4C4C",
"e. c #C93131",
"r. c #EEC2C2",
"t. c #D25353",
"y. c #3E3E3E",
"u. c #F46E6E",
"i. c #FDEBEB",
"p. c #EE9A9A",
"a. c #B53131",
"s. c #F8ECEC",
"d. c #D6AFAF",
"f. c #B88181",
"g. c #D28080",
"h. c #A28282",
"j. c gray69",
"k. c #ECCCCC",
"l. c #680707",
"z. c #9A2626",
"x. c #F8F4F4",
"c. c #DAC2C2",
"v. c #961E1E",
"b. c #510707",
"n. c #B85050",
"m. c #BA9595",
"M. c #EAD3D3",
"N. c #D7AAAA",
"B. c #B73434",
"V. c #B22626",
"C. c #974545",
"Z. c #B06565",
"A. c #9A7979",
"S. c gray48",
"D. c gray42",
"F. c gray39",
"G. c #D50707",
"H. c gray19",
/* pixels */
"                                                                                                                                ",
".   . X X X X X . X X X X X X . X   X X X X X X X . . . . . . X X X X X X X X X . . . . . . . X X X X       X X . . X X X X X   ",
"  o o O O O O O O O O O + X X . o o O O O O O O O O O O O O O O O O O O + X   . o o o o @ @ @ @ @ @ O O O O O # # # # $ $ $ + X ",
"X o # % % O & + O & # + * = X . o $ & $ & $ & $ - $ ; $ ; $ - $ - $ # + : = X   O + # % # % % # : # - # % # & % + - # ; # + - = ",
"X O + - + & + ; : + & : * = X . O $ & & + & : + + : ; + + : ; + : + ; : > = X . O + + - * + & : & + - & + + & + - & + > + : * = ",
"X O - + + : ; + + : + > , = X . O & $ + & + : + & + : + : & - + : ; - : > = X X O : + * & + * + : + - + & + * + ; - + - + : < = ",
"X # + - & ; - + : & + : , = X . $ $ & + & & ; + : & : + & : ; - & : + : , =   X $ : + - + & * + : : + + : + & + + - + > + & < = ",
"X $ - + + : + ; : ; : > , = X X $ # & + : + : + : + : ; & : - + : ; - : > =   X $ ; + * & + - & : & - + & + * + - & + - + : , = ",
"X $ + : & > : - > : & : , =   . ; ; : : < & : : & : < : & : & : < & : : , =   X $ : : > : : < & < : > & < : < & * < : & : & , = ",
"X - * * * , , , , , , , , =   X - * * > > > > > > > > > , , , , , , , , , =   X & * * * * * * * * * * > > > > > > > > > , , , = ",
"X X = = = = = = = = 1 1 1 =   . X = = = = = 1 1 1 1 1 = = 1 1 1 1 = = = = = X .   = = = = = = = = = = = 1 1 1 1 1 = = = = = = = ",
".         X X X X           X   X X X X X X X       . X X X     X X X X X X .   X . . . . 2 3 3 2 . . X X 4   4 .   . X X X .   ",
"o O O O $ $ $ $ $ $ $ $ $ $ $ + X . X o o O O O O O O # # # # # # # $ $ $ $ $ $ $ $ $ $ $ $ $ $ $ $ $ $ + X 4 . o o O O O O O O ",
"% & & % ; - % - ; & % * % & + ,   X . o : % # - $ * & $ & & # ; + & - & + & + & + - # * # & ; $ # ; # + ,   X   o # - % & % & % ",
"& + & + - & & * + & * & + + : , = X X O % : + - + + & + * + : * & + - + - + * + + & * + & + : & + : + : ,   X . # % - + & - + ; ",
": + + & ; * + - & & ; * + & : , =   X O : + & ; & & * & & : + & * + & - * - & & + > & - + : + : + + : : , = 4 X # - + + + - + - ",
"+ & & + & - - & - + ; * + * : , =   X O : + + - + * & + * : + * & + - & - + * + & > + * + : & : + : + : , =   X # % - + - + ; - ",
": + * + : & - ; * + * & + + : , = X . O % > + - + & * & > & : * + & - > - + * & > & + * & + : & + : + : , 1   X % - + + > + - & ",
": % * : < - : ; : ; : > ; : : , = X . % + : & > : ; : & 5 6 7 8 9 0 q w * & : & & > ; : : & < : ; : & : , 1 4 . % + - : > : ; : ",
", < < < < < < < < < < < < , , ,   X . + * * * * * * e r t y y y y y y y u i p a > > > > > > > > > > > , , 1 X   + * , * , , * , ",
"= = = 1 = = = 1 1 1 = = = 1 1 =   X   X   s = = d f t y y y y y y y y y y y y y = = = = 1 1 1 1 = = = = =   X . X = = = = = = = ",
". . X     X .   .   X X         X X . X X X 4   g y y y y h j k l z x c y y y y v 4 X X . 4     4 X X X . X .   . 4   4 . X X X ",
". o o O O O O O O O $ $ $ $ $ $ $ $ $ $ $ $ $ b y y y n m M . o o O O O N B V y C O O $ $ $ $ $ $ $ $ $ $ $ $ $ $ $ $ $ $ $ + X ",
". o & % $ - $ - $ - % & % & % # & % & % & $ % Z y y y A   X . o $ : O + % & + S D % ; % - * + & : & + - & + ; & + - & + > + , = ",
"  o % & + ; + - : & + + & ; & + & * + : + & F G y y H , = X 2 O $ ; + * + * & : ; & * + * & + * + : + - + & + * + ; - + - : , = ",
"X $ * + + : & > + * + : + & ; + * & + : & + J y y y K , = . 3 O $ - + - + * + : ; + - + - + & * + : : + ; : ; & + + - + > : , = ",
"X $ % & + < + > : & + & : - + - & * - + * + L y y y P , = . 2 O : + : ; & * & ; : + * & * & + - & : & - + & + * + - & + - : , = ",
". $ : * + < & - + * + > + * + & * & + & * + I y y y U , = X . O # : + : + & + & : + * + > : : < + < + > + < + + & * < : & : , = ",
"X # + * : : : > : < : : & * & : : & : : * : ; Y y y y T =   . # + : ; : & > : : : : * & : & < + > : + < : & < + > + < + : : , = ",
"X + ; * * * * * * * * * * * * * * < < < < < < R y y y y E W Q ! * * * * * * * * * * * * * * > > > > > > > > > > > > , > - > , = ",
"X X   = = = = = = = = = = = = = = = = =       ~ x y y y y y y ^ / ( ) _ = = = = 1 1 1 1 1 =       = 1 1 1 = = = = = = = = = = = ",
". . . . . X X   X       X . 3 3 . . . X X X 4 4 ` ' y y y y y y y y y ] [ { . X 4   4   4 X . . X X 4   4 X X X .   . X X X .   ",
"$ $ $ $ $ $ $ $ $ $ + X   . O O O O O O O O $ $ $ $ } |  .y y y y y y y y y ..X.X . . # o O O O O O O O O O $ $ $ $ $ $ $ $ $ $ ",
"+ % + % ; # % % # + ,   X   O + * + : + + * + & + + : + o.O.+.@.#.y y y y y y $.%.X . O + - + : + + * + - & - + : + & + - + : + ",
"+ - & + ; + - + & : , = X . O * + - & + - + ; : + & & : & & + & &.*.=.-.y y y y m . . O + > + : + & * + & + - & & ; : ; - ; & : ",
"& - + ; - + - ; + : , = X   O * + + - ; + : + : + & + > + < & & + & : ;.:.y y y t >.3 O + - + : + & + & + + - + : ; & + ; - + : ",
"+ & - + ; + ; - & : ,   X . O ; * + - + - > ; & & & : & + * + & * & ; : ,.<.y y y l 3 O - + + : + * + + - - + - + & ; ; & - : & ",
"+ & - + - + - ; + : ,   X X O * + - > ; + : & & + & + : & < * ; * + ; : + 1.y y y 2.. # + - + + : + & & - + - + : ; & + - & + : ",
": : & ; : : ; : : : ,   X X ; * + + > + - : + : + * + > & * + & * ; : ; + 3.y y y 4.. # + > + : + + & + & + - + : ; : ; - + + : ",
", , < < < < < < < , , = X X + * * * * * * * * * > > > > > > > > > > > > > 5.y y y 6.X + * * * * * * * * * * * * * * * > > > > , ",
"= = = = = = = = = = = = X . X = 1 1 1 1 = =       = 1 1 1 1 1 = = = = = = 7.y y y 8.X X = = = =     X   = = 1 1 1 = = = = = = = ",
". X .   X     X X         X X       X X X X 9.j 0.X X       . X X X .   ) h y y y q.. X .   . X . 2 3 . w.X X   . X . X .   .   ",
"  o O O O O O O O $ $ $ $ $ $ $ $ $ $ $ $ $ e.y y r.t.$ $ $ $ +   . y.u.i.y y y p.O O O O $ $ $ $ $ $ $ $ $ $ $ $ $ $ $ $ $ + X ",
". O + & & + * + + - ; + - + : & + * + - + & a.y y y y s.d.f.g.h.j.j c y y y y k.l.+ > + : + > + & > ; & : + & - + - ; : & + , = ",
"X O + * + & * + & ; - + * & > + ; * + > & ; z.x.y y y y y y y y y y y y y y c.v.* - > & > ; - + > + * + : & : + & - ; + * & , = ",
"X O & * + * & : * + * + & - & + * ; & & > - + b.n.m.M.y y y y y y y y y N.B.* * & + - > + - > ; + > + : : + : + - + : & * + , = ",
"  O + & + & * + & - ; + - + > & + * + > & + > ; + - + ! V.C.Z.A.S.D.F.G.+ * + & * + > + : ; - - > & * + - & ; & ; - : + & + , = ",
". O + * & + * + * + * + * + : + * * + > & - + - & * ; * & : + , 1   . O + * * + * - > + > + > ; > + * & : + : - + - ; & * : , = ",
"  # + * + * & : & ; - + & & & + ; * & - > * + < + : ; - + : + , 1   . # : + * & * + > - + - > ; : & * + : + : + - ; : + * + , = ",
". + * * * * * * * * * < < < < < < < < < < < < < < < < < < < < , = X . + * * * * * * * * * > > > > > < < < < < < < < < < < , , = ",
"  X = = = = = = = = = =       = 1 1 1 1 = = = 1 1 1 1 = = 1 1 = = X   X = = = = = = 1 1 1 = s   s = 1 = = = = 1 1 1 = = = = = = ",
".   .   . X . X X X X . 3 3 . X .   . X . X 4       4 X . X X   X X .   . X X X X X X X X w.. . . w.X X X X   H.1 1 H.  X X . X ",
"O O O O O $ $ $ $ $ $ $ $ $ $ $ $ + X . X o o O O O O O O O O $ $ $ $ $ $ $ $ $ $ $ $ $ $ $ + X   . o O O O O O $ $ $ $ $ $ $ $ ",
"- + > + + * ; * + - # - + * + - + , = X X O + + + + * + < + - + * + * + ; + * + * + > + : * ,   X . O + * & + > + : + : + * + : ",
"+ - - + - + * ; - * + > - * & * & , = X X O - + : + * : < - ; - + & * & ; * - & : & > + * + , s X . O * + > + : + : & + : + & < ",
"+ - > - + * ; * - + - > + & * ; - , = X 4 O - - : + * - - + > + < + + * + * + * & > & & * : , = X . O * + : : + + & : & : * : & ",
"- ; > ; * * + * + - + > - : * + * , = X 4 O + < : + * + < + - ; * + * & - * + * + & > : ; * , = X . O + * > + & : : + : + * : + ",
"* + - + * + * & + * + - > & + - & , = X 4 O < + + * + - : & > - < + * + * - - * & : > & : * , = X X O * + & + : + & : : > + : + ",
"* + - - * ; ; * ; * - > + * + * ; , = X X O < + : + * - - & < ; * & < + - * + & * + > + > & , =   X O * + > : > + : + : > * + < ",
"- ; > + * * & * - - + > + * : & - , = X . # + < : + * + < & * + * + : * + * - + * & : & * & , =   X # * * > + > + : + : + * + : ",
"< < < < < < < < < < < < < < < < , , = X X + , , , , , < < < < < < < < < < < < < < < < < < , , 1 X . + , , < < < < < < < < < < < ",
"= = = = = = = = = = = = = = = = = = = X . X   s s = = = = = = = = = = = = = = 1 1 1 1 1 = 1 1 1   X X = = = = = = 1 1 1 1 1 = = ",
"  .   .       X X X X X . .   X X X X . . . . . X X X . X X X . X X   X X X 4     4     4 X 4   4 . X X   . X X X X 4   4 X X X ",
". . . . . . . . . . . . . . . . . . . . . . . . . . . . . . . . . . . . . . . . . . . . . . . . . . . . . . . . . . . . . . . . "
};
