/* XPM */
static char *_cba8832db104260f235960e2b240e60EWBJMOvQDVCKLdFE[] = {
/* columns rows colors chars-per-pixel */
"64 64 210 2 ",
"   c gray22",
".  c gray33",
"X  c #484848",
"o  c #EC0000",
"O  c #D40000",
"+  c #A40000",
"@  c #E00000",
"#  c #C80000",
"$  c #BC0000",
"%  c #B00000",
"&  c #880000",
"*  c #640000",
"=  c #2C2C2C",
"-  c #7C0000",
";  c #980000",
":  c #700000",
">  c #580000",
",  c #400000",
"<  c #4C0000",
"1  c #202020",
"2  c gray36",
"3  c #646464",
"4  c gray25",
"5  c #CCA5A5",
"6  c white",
"7  c #FEFEFE",
"8  c #5B5B5B",
"9  c #F1E6E6",
"0  c #C87777",
"q  c #B07373",
"w  c #B13F3F",
"e  c #8C6666",
"r  c gray52",
"t  c #782121",
"y  c #CFB6B6",
"u  c #CDB2B2",
"i  c #F9F7F7",
"p  c #5A0303",
"a  c #414141",
"s  c gray64",
"d  c #343434",
"f  c #818181",
"g  c #F4F4F4",
"h  c #2D2D2D",
"j  c gray78",
"k  c gray92",
"l  c #DADADA",
"z  c gray72",
"x  c gray47",
"c  c #6C6C6C",
"v  c #9A9A9A",
"b  c #E7A5A5",
"n  c #FEFDFD",
"m  c #BF0B0B",
"M  c gray93",
"N  c #F68181",
"B  c #E77676",
"V  c #D97272",
"C  c #CC3E3E",
"Z  c #DE6666",
"A  c #C74949",
"S  c #571F1F",
"D  c #E1E1E1",
"F  c #F03232",
"G  c #F2B6B6",
"H  c #E7B2B2",
"J  c #FCF7F7",
"K  c #890303",
"L  c #B22626",
"P  c #BC8888",
"I  c #875F5F",
"U  c #BBBBBB",
"Y  c #D40101",
"T  c #FBF2F2",
"R  c #FAF2F2",
"E  c #650101",
"W  c #E7BDBD",
"Q  c #EFE6E6",
"!  c #E0C8C8",
"~  c #B69E9E",
"^  c gray60",
"/  c #ECB6B6",
"(  c #983636",
")  c #953131",
"_  c #C27D7D",
"`  c #D5A5A5",
"'  c #6B0B0B",
"]  c #E6DEDE",
"[  c gray42",
"{  c #B37878",
"}  c #C77676",
"|  c #A87070",
" . c #BA3D3D",
".. c #A26666",
"X. c #904848",
"o. c #B71717",
"O. c #E4E4E4",
"+. c #D53A3A",
"@. c #D6B6B6",
"#. c #CEAFAF",
"$. c #FAF7F7",
"%. c #720303",
"&. c #852626",
"*. c #B78888",
"=. c #A55E5E",
"-. c gray69",
";. c #A50303",
":. c #FAF6F6",
">. c #F7F2F2",
",. c #880101",
"<. c #710101",
"1. c #DFBBBB",
"2. c #EDE6E6",
"3. c #D7C6C6",
"4. c #B59C9C",
"5. c gray50",
"6. c #D7BDBD",
"7. c #843535",
"8. c #812F2F",
"9. c #AF7C7C",
"0. c gray71",
"q. c #FBFBFB",
"w. c gray24",
"e. c #E2E2E2",
"r. c #585858",
"t. c gray59",
"y. c gray55",
"u. c gray37",
"i. c #989898",
"p. c #7B7B7B",
"a. c gray29",
"s. c gray90",
"d. c #777777",
"f. c #CDCDCD",
"g. c #C1C1C1",
"h. c #F9F9F9",
"j. c #DA2626",
"k. c #EB8787",
"l. c #D45C5C",
"z. c #E6A0A0",
"x. c #BE0707",
"c. c #FDFAFA",
"v. c #BC0101",
"b. c gray95",
"n. c #FABBBB",
"m. c #DCC6C6",
"M. c #DC9C9C",
"N. c #B66262",
"B. c #EAC5C5",
"V. c #973535",
"C. c #CF7B7B",
"Z. c #9B0707",
"A. c #EEDBDB",
"S. c #982323",
"D. c #AB7575",
"F. c #8E8E8E",
"G. c #B93B3B",
"H. c #B06666",
"J. c #BD4646",
"K. c #AC1717",
"L. c #EEE6E6",
"P. c #994A4A",
"I. c #D8B3B3",
"U. c gray75",
"Y. c #FDF7F7",
"T. c #902626",
"R. c #CE8585",
"E. c #B25B5B",
"W. c #9C0B0B",
"Q. c #7D0101",
"!. c gray94",
"~. c #F3BABA",
"^. c #F4E6E6",
"/. c #E4C5C5",
"(. c #DB9A9A",
"). c #A96767",
"_. c #E3CDCD",
"`. c #B73434",
"'. c #622D2D",
"]. c #E27A7A",
"[. c #DEA4A4",
"{. c #740808",
"}. c #F1D9D9",
"|. c #732929",
" X c #D18E8E",
".X c #B77373",
"XX c #906C6C",
"oX c #D43939",
"OX c #A16565",
"+X c #9D5D5D",
"@X c #F2ECEC",
"#X c #8D5151",
"$X c #C5B2B2",
"%X c #C0ABAB",
"&X c #3F3F3F",
"*X c gray88",
"=X c #F3F3F3",
"-X c #CBCBCB",
";X c #A5A5A5",
":X c #4C4C4C",
">X c #C82E2E",
",X c #F79797",
"<X c #DD3838",
"1X c #C86666",
"2X c #C45A5A",
"3X c #9A2626",
"4X c #D6B0B0",
"5X c #931818",
"6X c #DAB7B7",
"7X c gray19",
/* pixels */
"                                                                                                                                ",
".   . X X X X X . X X X X X X . X   X X X X X X X . . . . . . X X X X X X X X X . . . . . . . X X X X       X X . . X X X X X   ",
"  o o O O O O O O O O O + X X . o o O O O O O O O O O O O O O O O O O O + X   . o o o o @ @ @ @ @ @ O O O O O # # # # $ $ $ + X ",
"X o # % % O & + O & # + * = X . o $ & $ & $ & $ - $ ; $ ; $ - $ - $ # + : = X   O + # % # % % # : # - # % # & % + - # ; # + - = ",
"X O + - + & + ; : + & : * = X . O $ & & + & : + + : ; + + : ; + : + ; : > = X . O + + - * + & : & + - & + + & + - & + > + : * = ",
"X O - + + : ; + + : + > , = X . O & $ + & + : + & + : + : & - + : ; - : > = X X O : + * & + * + : + - + & + * + ; - + - + : < = ",
"X # + - & ; - + : & + : , = X . $ $ & + & & ; + : & : + & : ; - & : + : , =   X $ : + - + & * + : : + + : + & + + - + > + & < = ",
"X $ - + + : + ; : ; : > , = X X $ # & + : + : + : + : ; & : - + : ; - : > =   X $ ; + * & + - & : & - + & + * + - & + - + : , = ",
"X $ + : & > : - > : & : , =   . ; ; : : < & : : & : < : & : & : < & : : , =   X $ : : > : : < & < : > & < : < & * < : & : & , = ",
"X - * * * , , , , , , , , =   X - * * > > > > > > > > > , , , , , , , , , =   X & * * * * * * * * * * > > > > > > > > > , , , = ",
"X X = = = = = = = = 1 1 1 =   . X = = = = = 1 1 1 1 1 = = 1 1 1 1 = = = = = X .   = = = = = = = = = = = 1 1 1 1 1 = = = = = = = ",
".         X X X X           X   X X X X X X X       . X X X     X X X X X X .   X . . . . 2 3 3 2 . . X X 4   4 .   . X X X .   ",
"o O O O $ $ $ $ $ $ $ $ $ $ $ + X . X o o O O O O O O # # # # # # # $ $ $ $ $ $ $ $ $ $ $ $ $ $ $ $ $ $ + X 4 . o o O O O O O O ",
"% & & % ; - % - ; & % * % & + ,   X . o : % # - $ * & $ & & # ; + & - & + & + & + - # * # & ; $ # ; # + ,   X   o # - % & % & % ",
"& + & + - & & * + & * & + + : , = X X O % : + - + + & + * + : * & + - + - + * + + & * + & + : & + : + : ,   X . # % - + & - + ; ",
": + + & ; * + - & & ; * + & : , =   X O : + & ; & & * & & : + & * + & - * - & & + > & - + : + : + + : : , = 4 X # - + + + - + - ",
"+ & & + & - - & - + ; * + * : , =   X O : + + - + * & + * : + * & + - & - + * + & > + * + : & : + : + : , =   X # % - + - + ; - ",
": + * + : & - ; * + * & + + : , = X . O % > + - + & * & > & : * + & - > - + * & > & + * & + : & + : + : , 1   X % - + + > + - & ",
": % * : < - : ; : ; : > ; : 5 6 6 7 8 % + : & > : ; : & * 9 6 6 6 0 : ; * & : & & > ; : q 6 6 6 w : & : , 1 4 . % + - : > : ; : ",
", < < < < < < < < < < < < , e 6 6 6 r + * * * * * * * * t 6 6 6 6 y > > > > > > > > > > u 6 6 i p > > , , 1 X   + * , * , , * , ",
"= = = 1 = = = 1 1 1 = = = 1 a 6 6 6 s X   d = = = = = = f 6 6 6 6 g h = 1 1 1 1 1 = = h g 6 6 j = = = = =   X . X = = = = = = = ",
". . X     X .   .   X X       k 6 6 l X X X 4   4   4   z 6 6 g 6 6 x X 4       4 4 X c 6 6 6 v 4 X X X . X .   . 4   4 . X X X ",
". o o O O O O O O O $ $ $ $ $ b 6 6 n m $ $ $ $ $ $ $ + M 6 6 N 6 6 B O O O O O O O O V 6 6 6 C $ $ $ $ $ $ $ $ $ $ $ $ $ $ + X ",
". o & % $ - $ - $ - % & % & % Z 6 6 6 A & $ % * % # : S 6 6 D F 6 6 G + % & + % & % ; H 6 6 J K : & + - & + ; & + - & + > + , = ",
"  o % & + ; + - : & + + & ; & L 6 6 6 P + & * & + : % I 6 6 U Y T 6 R E + * & : ; & E R 6 6 W * + : + - + & + * + ; - + - : , = ",
"X $ * + + : & > + * + : + & ; + Q 6 6 ! & + & * - + : ~ 6 6 ^ O / 6 6 ( + * + : ; + ) 6 6 6 _ * + : : + ; : ; & + + - + > : , = ",
"X $ % & + < + > : & + & : - + - ` 6 6 n ' + & * + : > ] 6 6 [ O { 6 6 } & * & ; : + | 6 6 6  .- & : & - + & + * + - & + - : , = ",
". $ : * + < & - + * + > + * + & ..6 6 6 X.+ * & - - o.6 6 O.. O +.6 6 @.+ & + & : + #.6 6 $.%.< + < + > + < + + & * < : & : , = ",
"X # + * : : : > : < : : & * & : &.6 6 6 *.: ; : ; : =.6 6 -.. # ;.:.6 >.,.> : : : <.>.6 6 1.< + > : + < : & < + > + < + : : , = ",
"X + ; * * * * * * * * * * * * * * 2.6 6 3.< < < < < 4.6 6 5.. + * 6.6 6 7.* * * * 8.6 6 6 9.> > > > > > > > > > > > , > - > , = ",
"X X   = = = = = = = = = = = = = = 0.6 6 q.w.  = = = e.6 6 r.X X = t.6 6 y.= = = 1 f 6 6 6 u.      = 1 1 1 = = = = = = = = = = = ",
". . . . . X X   X       X . 3 3 . i.6 6 6 p.4 4   a.6 6 s.4 . X X d.6 6 f.X . X 4 g.6 6 h.a.. . X X 4   4 X X X .   . X X X .   ",
"$ $ $ $ $ $ $ $ $ $ + X   . O O O j.6 6 6 k.$ $ $ l.6 6 z.$ $ $ $ x.c.6 T v.$ + X b.6 6 n.O O O O O O O O O $ $ $ $ $ $ $ $ $ $ ",
"+ % + % ; # % % # + ,   X   O + * + 9 6 6 m.+ & + M.6 6 N.* + + * + B.6 6 V.+ , 2 6 6 6 C.- + : + + * + - & - + : + & + - + : + ",
"+ - & + ; + - + & : , = X . O * + - ` 6 6 c.Z.: + A.6 6 S.& + & * + P 6 6 D.+ , F.6 6 6 G.> + : + & * + & + - & & ; : ; - ; & : ",
"& - + ; - + - ; + : , = X   O * + + H.6 6 6 J.: K.6 6 L.+ < & & + & P.6 6 I.+ , U.6 6 Y.;.- + : + & + & + + - + : ; & + ; - + : ",
"+ & - + ; + ; - & : ,   X . O ; * + T.6 6 6 R.& E.6 6 ` + * + & * & W.n 6 R Q., !.6 6 ~.- + + : + * + + - - + - + & ; ; & - : & ",
"+ & - + - + - ; + : ,   X X O * + - > ^.6 6 /.& (.6 6 ).& < * ; * + ; _.6 6 `.'.6 6 6 ].+ - + + : + & & - + - + : ; & + - & + : ",
": : & ; : : ; : : : ,   X X ; * + + > [.6 6 6 {.}.6 6 |.& * + & * ; :  X6 6 .XXX6 6 6 oX+ > + : + + & + & + - + : ; : ; - + + : ",
", , < < < < < < < , , = X X + * * * * OX6 6 6 +X6 6 @X> > > > > > > > #X6 6 $X%X6 6 h.;.* * * * * * * * * * * * * * * > > > > , ",
"= = = = = = = = = = = = X . X = 1 1 1 &X6 6 6 *X6 6 0.1 1 1 1 = = = = w.6 6 =XM 6 6 -XX = = = =     X   = = 1 1 1 = = = = = = = ",
". X .   X     X X         X X       X X M 6 6 6 6 6 t.      . X X X .   D 6 6 6 6 6 ;XX .   . X . 2 3 . :XX X   . X . X .   .   ",
"  o O O O O O O O $ $ $ $ $ $ $ $ $ $ $ b 6 6 6 6 6 >X$ $ $ $ +   .   o ,X6 6 6 6 6 <XO O $ $ $ $ $ $ $ $ $ $ $ $ $ $ $ $ $ + X ",
". O + & & + * + + - ; + - + : & + * + - 1X6 6 6 6 >.+ + - : + ,   X . o 2X6 6 6 6 J p + : + > + & > ; & : + & - + - ; : & + , = ",
"X O + * + & * + & ; - + * & > + ; * + > 3X6 6 6 6 4X+ - + : ; , = X X O 5X6 6 6 6 6X> & > ; - + > + * + : & : + & - ; + * & , = ",
"X O & * + * & : * + * + & - & + * ; & & > - + < ; > & * & & : , =   X O & + * * & + - > + - > ; + > + : : + : + - + : & * + , = ",
"  O + & + & * + & - ; + - + > & + * + > & + > ; + - + + + : - , =   X O + * + & * + > + : ; - - > & * + - & ; & ; - : + & + , = ",
". O + * & + * + * + * + * + : + * * + > & - + - & * ; * & : + , 1   . O + * * + * - > + > + > ; > + * & : + : - + - ; & * : , = ",
"  # + * + * & : & ; - + & & & + ; * & - > * + < + : ; - + : + , 1   . # : + * & * + > - + - > ; : & * + : + : + - ; : + * + , = ",
". + * * * * * * * * * < < < < < < < < < < < < < < < < < < < < , = X . + * * * * * * * * * > > > > > < < < < < < < < < < < , , = ",
"  X = = = = = = = = = =       = 1 1 1 1 = = = 1 1 1 1 = = 1 1 = = X   X = = = = = = 1 1 1 = d   d = 1 = = = = 1 1 1 = = = = = = ",
".   .   . X . X X X X . 3 3 . X .   . X . X 4       4 X . X X   X X .   . X X X X X X X X :X. . . :XX X X X   7X1 1 7X  X X . X ",
"O O O O O $ $ $ $ $ $ $ $ $ $ $ $ + X . X o o O O O O O O O O $ $ $ $ $ $ $ $ $ $ $ $ $ $ $ + X   . o O O O O O $ $ $ $ $ $ $ $ ",
"- + > + + * ; * + - # - + * + - + , = X X O + + + + * + < + - + * + * + ; + * + * + > + : * ,   X . O + * & + > + : + : + * + : ",
"+ - - + - + * ; - * + > - * & * & , = X X O - + : + * : < - ; - + & * & ; * - & : & > + * + , d X . O * + > + : + : & + : + & < ",
"+ - > - + * ; * - + - > + & * ; - , = X 4 O - - : + * - - + > + < + + * + * + * & > & & * : , = X . O * + : : + + & : & : * : & ",
"- ; > ; * * + * + - + > - : * + * , = X 4 O + < : + * + < + - ; * + * & - * + * + & > : ; * , = X . O + * > + & : : + : + * : + ",
"* + - + * + * & + * + - > & + - & , = X 4 O < + + * + - : & > - < + * + * - - * & : > & : * , = X X O * + & + : + & : : > + : + ",
"* + - - * ; ; * ; * - > + * + * ; , = X X O < + : + * - - & < ; * & < + - * + & * + > + > & , =   X O * + > : > + : + : > * + < ",
"- ; > + * * & * - - + > + * : & - , = X . # + < : + * + < & * + * + : * + * - + * & : & * & , =   X # * * > + > + : + : + * + : ",
"< < < < < < < < < < < < < < < < , , = X X + , , , , , < < < < < < < < < < < < < < < < < < , , 1 X . + , , < < < < < < < < < < < ",
"= = = = = = = = = = = = = = = = = = = X . X   d d = = = = = = = = = = = = = = 1 1 1 1 1 = 1 1 1   X X = = = = = = 1 1 1 1 1 = = ",
"  .   .       X X X X X . .   X X X X . . . . . X X X . X X X . X X   X X X 4     4     4 X 4   4 . X X   . X X X X 4   4 X X X ",
". . . . . . . . . . . . . . . . . . . . . . . . . . . . . . . . . . . . . . . . . . . . . . . . . . . . . . . . . . . . . . . . "
};
